<svg preserveAspectRatio="none" overflow="visible" style="display: block;" width="20" height="20" viewBox="0 0 20 20" fill="none" xmlns="http://www.w3.org/2000/svg">
<g id="start-icon">
<path id="Vector" d="M15 16.25C15 16.4158 14.9342 16.5747 14.8169 16.6919C14.6997 16.8092 14.5408 16.875 14.375 16.875H4.375C4.20924 16.875 4.05027 16.8092 3.93306 16.6919C3.81585 16.5747 3.75 16.4158 3.75 16.25C3.75 16.0842 3.81585 15.9253 3.93306 15.8081C4.05027 15.6908 4.20924 15.625 4.375 15.625H4.6875C5.26766 15.625 5.82406 15.3945 6.2343 14.9843C6.64453 14.5741 6.875 14.0177 6.875 13.4375V10.625H4.375C4.20924 10.625 4.05027 10.5592 3.93306 10.4419C3.81585 10.3247 3.75 10.1658 3.75 10C3.75 9.83424 3.81585 9.67527 3.93306 9.55806C4.05027 9.44085 4.20924 9.375 4.375 9.375H6.875V6.5625C6.87502 5.79217 7.09405 5.03772 7.50656 4.38715C7.91907 3.73658 8.50804 3.2167 9.20479 2.88814C9.90154 2.55959 10.6773 2.4359 11.4417 2.53151C12.2061 2.62712 12.9275 2.93808 13.5219 3.42813C13.5869 3.47977 13.6411 3.54386 13.6811 3.61666C13.7211 3.68947 13.7462 3.76951 13.7549 3.85213C13.7636 3.93474 13.7558 4.01827 13.7318 4.09782C13.7079 4.17736 13.6683 4.25134 13.6155 4.31542C13.5626 4.37951 13.4975 4.43241 13.424 4.47103C13.3504 4.50966 13.2699 4.53323 13.1871 4.54038C13.1044 4.54753 13.021 4.5381 12.9419 4.51266C12.8628 4.48721 12.7896 4.44626 12.7266 4.39219C12.3151 4.05294 11.8156 3.83769 11.2864 3.77153C10.7572 3.70537 10.2201 3.79104 9.73774 4.01854C9.25539 4.24604 8.84766 4.606 8.56211 5.05643C8.27656 5.50685 8.12496 6.02919 8.125 6.5625V9.375H10.625C10.7908 9.375 10.9497 9.44085 11.0669 9.55806C11.1842 9.67527 11.25 9.83424 11.25 10C11.25 10.1658 11.1842 10.3247 11.0669 10.4419C10.9497 10.5592 10.7908 10.625 10.625 10.625H8.125V13.4375C8.12571 14.2362 7.84714 15.01 7.3375 15.625H14.375C14.5408 15.625 14.6997 15.6908 14.8169 15.8081C14.9342 15.9253 15 16.0842 15 16.25Z" fill="#42414E"/>
</g>
</svg>
